<?xml version="1.0" standalone="no"?>
<!DOCTYPE svg PUBLIC "-//W3C//DTD SVG 20010904//EN"
 "http://www.w3.org/TR/2001/REC-SVG-20010904/DTD/svg10.dtd">
<svg version="1.0" xmlns="http://www.w3.org/2000/svg"
 width="263.000000pt" height="47.000000pt" viewBox="0 0 263.000000 47.000000"
 preserveAspectRatio="xMidYMid meet">

<g transform="translate(0.000000,47.000000) scale(0.100000,-0.100000)"
fill="#000000" stroke="none">
<path d="M717 444 c-4 -4 -7 -31 -7 -60 l0 -52 -28 10 c-41 16 -80 2 -103 -35
-16 -26 -19 -45 -16 -96 3 -55 7 -67 31 -87 31 -27 72 -31 103 -9 14 10 24 12
28 5 3 -5 17 -10 31 -10 l24 0 -2 168 -3 167 -25 3 c-14 2 -29 0 -33 -4z m-26
-154 c15 -9 19 -22 19 -66 0 -49 -3 -56 -26 -66 -23 -11 -29 -10 -45 11 -23
28 -25 79 -3 109 17 25 27 27 55 12z"/>
<path d="M24 417 c-2 -7 -3 -78 -2 -157 l3 -145 33 -3 32 -3 0 66 c0 63 1 66
23 63 16 -2 30 -20 52 -65 28 -58 33 -63 63 -63 17 0 32 2 32 5 0 14 -44 112
-56 126 -12 14 -11 18 11 39 42 39 33 110 -16 135 -36 19 -167 21 -175 2z
m130 -43 c19 -7 21 -55 4 -72 -7 -7 -25 -12 -40 -12 -27 0 -28 2 -28 45 0 41
2 45 24 45 13 0 31 -3 40 -6z"/>
<path d="M1017 416 c-11 -28 4 -47 32 -44 20 2 26 8 26 28 0 20 -6 26 -26 28
-17 2 -29 -3 -32 -12z"/>
<path d="M1765 418 c-3 -8 -4 -79 -3 -158 l3 -145 55 -3 c76 -4 118 5 146 33
33 33 33 88 -1 119 -22 21 -23 25 -10 36 23 19 19 83 -6 106 -27 25 -176 35
-184 12z m135 -53 c22 -26 -3 -65 -40 -65 -28 0 -30 2 -30 40 0 37 2 40 29 40
16 0 34 -7 41 -15z m8 -127 c7 -7 12 -21 12 -33 0 -30 -19 -45 -57 -45 -32 0
-33 1 -33 45 0 44 1 45 33 45 18 0 38 -5 45 -12z"/>
<path d="M353 340 c-55 -23 -79 -118 -47 -185 31 -65 134 -74 187 -15 23 26
27 39 27 90 0 80 -25 111 -96 116 -27 2 -59 0 -71 -6z m89 -57 c25 -23 25 -94
-1 -117 -43 -39 -97 6 -87 72 9 60 49 81 88 45z"/>
<path d="M911 331 c-16 -16 -21 -18 -21 -6 0 9 -9 15 -25 15 l-25 0 0 -115 0
-115 30 0 30 0 0 73 c0 80 15 107 59 107 18 0 22 5 19 28 -4 35 -39 41 -67 13z"/>
<path d="M1170 337 c-33 -17 -47 -59 -33 -97 8 -20 8 -32 1 -36 -6 -4 -8 -24
-5 -44 3 -21 0 -43 -5 -48 -5 -5 -8 -22 -6 -38 4 -40 39 -56 111 -51 66 4 100
28 100 72 0 40 -24 57 -89 64 -68 7 -88 31 -26 31 51 0 92 31 92 70 0 16 7 30
15 34 16 6 21 32 8 39 -23 13 -140 16 -163 4z m84 -49 c15 -25 -4 -53 -35 -53
-25 0 -37 30 -25 61 8 20 46 14 60 -8z m13 -194 c7 -20 -13 -34 -49 -34 -30 0
-43 13 -34 35 8 21 75 20 83 -1z"/>
<path d="M1414 331 c-39 -24 -58 -76 -50 -135 8 -54 41 -86 95 -93 78 -11 127
29 137 109 13 107 -91 175 -182 119z m100 -47 c10 -9 16 -33 16 -59 0 -47 -19
-75 -50 -75 -31 0 -50 28 -50 75 0 47 19 75 50 75 10 0 26 -7 34 -16z"/>
<path d="M2111 331 c-16 -16 -21 -18 -21 -6 0 9 -9 15 -25 15 l-25 0 0 -115 0
-115 30 0 30 0 0 73 c0 80 15 107 59 107 18 0 22 5 19 28 -4 35 -39 41 -67 13z"/>
<path d="M2242 340 c-25 -11 -39 -37 -26 -50 5 -5 27 -4 51 3 33 8 45 8 57 -2
28 -23 19 -41 -19 -41 -52 0 -92 -24 -100 -59 -15 -70 63 -117 123 -75 12 8
22 10 22 5 0 -6 11 -11 25 -11 25 0 25 0 25 99 0 96 -1 100 -26 120 -28 22
-90 27 -132 11z m98 -150 c0 -34 -62 -55 -74 -24 -9 24 12 44 45 44 22 0 29
-5 29 -20z"/>
<path d="M1020 225 l0 -115 30 0 30 0 0 115 0 115 -30 0 -30 0 0 -115z"/>
<path d="M2454 325 c-10 -24 5 -35 47 -35 l39 0 -45 -67 c-25 -37 -45 -78 -45
-91 0 -22 2 -23 83 -20 74 3 82 5 82 23 0 17 -8 20 -47 23 l-48 3 45 67 c25
37 45 77 45 89 0 22 -4 23 -75 23 -57 0 -77 -4 -81 -15z"/>
</g>
</svg>
